<?xml version="1.0" encoding="UTF-8" standalone="no"?>
<svg
   xmlns:dc="http://purl.org/dc/elements/1.1/"
   xmlns:cc="http://creativecommons.org/ns#"
   xmlns:rdf="http://www.w3.org/1999/02/22-rdf-syntax-ns#"
   xmlns:svg="http://www.w3.org/2000/svg"
   xmlns="http://www.w3.org/2000/svg"
   xmlns:sodipodi="http://sodipodi.sourceforge.net/DTD/sodipodi-0.dtd"
   xmlns:inkscape="http://www.inkscape.org/namespaces/inkscape"
   width="50"
   height="50"
   viewBox="0 130.746 11.90558 11.903158"
   version="1.1"
   id="svg11"
   sodipodi:docname="ai.svg"
   inkscape:version="1.0.2-2 (e86c870879, 2021-01-15)">
  <metadata
     id="metadata17">
    <rdf:RDF>
      <cc:Work
         rdf:about="">
        <dc:format>image/svg+xml</dc:format>
        <dc:type
           rdf:resource="http://purl.org/dc/dcmitype/StillImage" />
        <dc:title></dc:title>
      </cc:Work>
    </rdf:RDF>
  </metadata>
  <defs
     id="defs15" />
  <sodipodi:namedview
     pagecolor="#ffffff"
     bordercolor="#666666"
     borderopacity="1"
     objecttolerance="10"
     gridtolerance="10"
     guidetolerance="10"
     inkscape:pageopacity="0"
     inkscape:pageshadow="2"
     inkscape:window-width="1920"
     inkscape:window-height="1051"
     id="namedview13"
     showgrid="false"
     inkscape:zoom="2.8876128"
     inkscape:cx="-1.6435228"
     inkscape:cy="14.219161"
     inkscape:window-x="-9"
     inkscape:window-y="-9"
     inkscape:window-maximized="1"
     inkscape:current-layer="svg11"
     fit-margin-top="0"
     fit-margin-left="0"
     fit-margin-right="0"
     fit-margin-bottom="0" />
  <radialGradient
     id="a"
     cx="-183.69"
     cy="328.97198"
     r="0.75999999"
     gradientTransform="matrix(10.913456,0,0,10.837118,2008.783,-3431.4726)"
     gradientUnits="userSpaceOnUse">
    <stop
       offset="0"
       stop-color="#423325"
       stop-opacity=".98"
       id="stop2" />
    <stop
       offset="1"
       stop-color="#1c0a00"
       id="stop4" />
  </radialGradient>
  <path
     d="M 0.49605917,131.19574 H 11.409521 v 10.888 H 0.49605917 Z"
     fill="url(#a)"
     id="path7"
     style="fill:url(#a);stroke-width:0.0202547" />
  <path
     d="M 0.49605917,131.19574 H 11.409521 v 10.888 H 0.49605917 Z M 0,142.59254 H 11.90558 V 130.68696 H 0 Z m 7.7981469,-7.66231 c 0,-0.0407 0.01488,-0.0611 0.05954,-0.0611 h 0.7788187 c 0.03966,0 0.05952,0.0153 0.05952,0.0611 v 4.01432 c 0,0.0407 -0.00992,0.061 -0.05952,0.061 H 7.8676068 c -0.0496,0 -0.0645,-0.0254 -0.0645,-0.0661 v -4.00924 z m -0.05456,-1.15495 c 0,-0.32562 0.2232196,-0.51895 0.5059991,-0.51895 0.3025995,0 0.5059792,0.20859 0.5059792,0.51895 0,0.33579 -0.2132997,0.51895 -0.5158991,0.51895 -0.2877395,2e-5 -0.4960791,-0.18316 -0.4960792,-0.51895 z m -2.2322962,2.82885 c -0.1388797,-0.56476 -0.4662792,-1.79601 -0.590319,-2.39129 h -0.00992 c -0.1041799,0.59528 -0.3670794,1.60266 -0.5754191,2.39129 z m -1.3790576,0.82424 -0.3918994,1.52636 c -0.00992,0.0407 -0.0248,0.0508 -0.0744,0.0508 H 2.9367151 c -0.0496,0 -0.05954,-0.0153 -0.0496,-0.0763 l 1.4088177,-5.05734 c 0.0248,-0.0916 0.03968,-0.17298 0.0496,-0.42227 0,-0.0356 0.01488,-0.0509 0.03968,-0.0509 h 1.0417383 c 0.03472,0 0.0496,0.0102 0.05954,0.0509 l 1.5774773,5.48978 c 0.00992,0.0407 0,0.0661 -0.03968,0.0661 H 6.2008096 c -0.03968,0 -0.0645,-0.0102 -0.0744,-0.0458 l -0.4067792,-1.53144 z"
     fill="#ff7f18"
     id="path9"
     style="stroke-width:0.0202547" />
</svg>
