<?xml version="1.0" encoding="UTF-8" standalone="no"?>
<svg
   xmlns:dc="http://purl.org/dc/elements/1.1/"
   xmlns:cc="http://creativecommons.org/ns#"
   xmlns:rdf="http://www.w3.org/1999/02/22-rdf-syntax-ns#"
   xmlns:svg="http://www.w3.org/2000/svg"
   xmlns="http://www.w3.org/2000/svg"
   xmlns:sodipodi="http://sodipodi.sourceforge.net/DTD/sodipodi-0.dtd"
   xmlns:inkscape="http://www.inkscape.org/namespaces/inkscape"
   width="50"
   height="50"
   viewBox="0 0 50 50"
   fill="none"
   version="1.1"
   id="svg4"
   sodipodi:docname="github.svg"
   inkscape:version="1.0.2-2 (e86c870879, 2021-01-15)">
  <metadata
     id="metadata10">
    <rdf:RDF>
      <cc:Work
         rdf:about="">
        <dc:format>image/svg+xml</dc:format>
        <dc:type
           rdf:resource="http://purl.org/dc/dcmitype/StillImage" />
        <dc:title></dc:title>
      </cc:Work>
    </rdf:RDF>
  </metadata>
  <defs
     id="defs8" />
  <sodipodi:namedview
     pagecolor="#ffffff"
     bordercolor="#666666"
     borderopacity="1"
     objecttolerance="10"
     gridtolerance="10"
     guidetolerance="10"
     inkscape:pageopacity="0"
     inkscape:pageshadow="2"
     inkscape:window-width="1920"
     inkscape:window-height="1051"
     id="namedview6"
     showgrid="false"
     fit-margin-top="0"
     fit-margin-left="0"
     fit-margin-right="0"
     fit-margin-bottom="0"
     inkscape:zoom="0.60766989"
     inkscape:cx="365.47384"
     inkscape:cy="568.39329"
     inkscape:window-x="-9"
     inkscape:window-y="-9"
     inkscape:window-maximized="1"
     inkscape:current-layer="svg4" />
  <path
     fill-rule="evenodd"
     clip-rule="evenodd"
     d="M 25,0 C 11.1875,0 0,11.470475 0,25.632346 c 0,11.342313 7.15625,20.922403 17.09375,24.318688 1.25,0.224283 1.71875,-0.544687 1.71875,-1.217536 0,-0.608768 -0.03125,-2.627315 -0.03125,-4.774024 C 12.5,45.14497 10.875,42.389492 10.375,40.947673 c -0.28125,-0.73693 -1.5,-3.011801 -2.5625,-3.620569 -0.875,-0.480607 -2.125,-1.666103 -0.03125,-1.698143 1.96875,-0.03204 3.375,1.858345 3.84375,2.627316 2.25,3.876892 5.84375,2.787517 7.28125,2.114668 C 19.125,38.704843 19.78125,37.583427 20.5,36.942619 14.9375,36.30181 9.125,34.09102 9.125,24.286648 c 0,-2.787518 0.96875,-5.094429 2.5625,-6.888693 -0.25,-0.640809 -1.125,-3.268124 0.25,-6.792572 0,0 2.09375,-0.6728489 6.875,2.627316 2,-0.576728 4.125,-0.865092 6.25,-0.865092 2.125,0 4.25,0.288364 6.25,0.865092 4.78125,-3.3322053 6.875,-2.627316 6.875,-2.627316 1.375,3.524448 0.5,6.151763 0.25,6.792572 C 40.03125,19.192219 41,21.46709 41,24.286648 c 0,9.836413 -5.84375,12.015162 -11.40625,12.655971 0.90625,0.801011 1.6875,2.338951 1.6875,4.741984 0,3.428326 -0.03125,6.183803 -0.03125,7.048895 0,0.672849 0.46875,1.47386 1.71875,1.217536 C 42.84375,46.554749 50,36.942619 50,25.632346 50,11.470475 38.8125,0 25,0 Z"
     fill="#1b1f23"
     id="path2"
     style="stroke-width:3.16427" />
</svg>
