<?xml version="1.0" encoding="UTF-8" standalone="no"?>
<svg
   xmlns:dc="http://purl.org/dc/elements/1.1/"
   xmlns:cc="http://creativecommons.org/ns#"
   xmlns:rdf="http://www.w3.org/1999/02/22-rdf-syntax-ns#"
   xmlns:svg="http://www.w3.org/2000/svg"
   xmlns="http://www.w3.org/2000/svg"
   xmlns:sodipodi="http://sodipodi.sourceforge.net/DTD/sodipodi-0.dtd"
   xmlns:inkscape="http://www.inkscape.org/namespaces/inkscape"
   viewBox="0 0 49.995542 49.995542"
   width="50"
   height="50"
   version="1.1"
   id="svg20"
   sodipodi:docname="instagram.svg"
   inkscape:version="1.0.2-2 (e86c870879, 2021-01-15)">
  <metadata
     id="metadata24">
    <rdf:RDF>
      <cc:Work
         rdf:about="">
        <dc:format>image/svg+xml</dc:format>
        <dc:type
           rdf:resource="http://purl.org/dc/dcmitype/StillImage" />
        <dc:title></dc:title>
      </cc:Work>
    </rdf:RDF>
  </metadata>
  <sodipodi:namedview
     pagecolor="#ffffff"
     bordercolor="#666666"
     borderopacity="1"
     objecttolerance="10"
     gridtolerance="10"
     guidetolerance="10"
     inkscape:pageopacity="0"
     inkscape:pageshadow="2"
     inkscape:window-width="1920"
     inkscape:window-height="1051"
     id="namedview22"
     showgrid="false"
     inkscape:zoom="0.1307578"
     inkscape:cx="394.80315"
     inkscape:cy="1788.0629"
     inkscape:window-x="-9"
     inkscape:window-y="-9"
     inkscape:window-maximized="1"
     inkscape:current-layer="svg20"
     fit-margin-top="0"
     fit-margin-left="0"
     fit-margin-right="0"
     fit-margin-bottom="0" />
  <defs
     id="defs12">
    <radialGradient
       id="0"
       cx="217.75999"
       cy="3290.99"
       r="4271.9199"
       gradientUnits="userSpaceOnUse"
       gradientTransform="scale(0.01485884)">
      <stop
         offset=".09"
         stop-color="#fa8f21"
         id="stop2" />
      <stop
         offset=".78"
         stop-color="#d82d7e"
         id="stop4" />
    </radialGradient>
    <radialGradient
       id="1"
       cx="2330.6101"
       cy="3182.95"
       r="3759.3301"
       gradientUnits="userSpaceOnUse"
       gradientTransform="scale(0.01485884)">
      <stop
         offset=".64"
         stop-color="#8c3aaa"
         stop-opacity="0"
         id="stop7" />
      <stop
         offset="1"
         stop-color="#8c3aaa"
         id="stop9" />
    </radialGradient>
  </defs>
  <path
     d="M 12.677563,49.818722 C 9.7043091,49.683507 8.089153,49.188707 7.0148588,48.769688 5.5913819,48.215453 4.576523,47.555721 3.5081724,46.488856 2.4398217,45.421991 1.7786033,44.407132 1.2273403,42.983655 0.80832095,41.909361 0.31352155,40.294205 0.17830609,37.320951 0.02971768,34.106984 0,33.142645 0,25 0,16.857355 0.03268945,15.894502 0.17682021,12.677563 0.31203566,9.7043091 0.80980684,8.0921248 1.2258544,7.0148588 1.7800892,5.5913819 2.4413076,4.576523 3.5066865,3.5066865 4.5735513,2.4398217 5.5884101,1.7771174 7.013373,1.2258544 8.0876672,0.80683507 9.7028232,0.31203566 12.676077,0.17682021 15.89153,0.02971768 16.857355,0 24.997028,0 c 8.142645,0 9.105498,0.03268945 12.322437,0.17682021 2.973254,0.13521545 4.585438,0.63298663 5.662704,1.04903419 1.423477,0.551263 2.438336,1.2139673 3.506687,2.2808321 1.068351,1.0668648 1.726597,2.0832095 2.280832,3.5066865 0.419019,1.0742942 0.913819,2.6894502 1.049034,5.662704 0.147103,3.216939 0.17682,4.179792 0.17682,12.322437 0,8.139673 -0.02972,9.105498 -0.17682,12.322437 -0.135215,2.973254 -0.632986,4.58841 -1.049034,5.662704 -0.554235,1.423477 -1.213967,2.438336 -2.280832,3.505201 -1.066865,1.066865 -2.08321,1.726597 -3.506687,2.280832 -1.074294,0.419019 -2.68945,0.913819 -5.662704,1.049034 -3.213967,0.147103 -4.179792,0.17682 -12.322437,0.17682 -8.139673,0 -9.105498,-0.02823 -12.319465,-0.17682"
     fill="url(#0)"
     id="path14"
     style="fill:url(#0);stroke-width:0.0148589" />
  <path
     d="M 12.677563,49.818722 C 9.7043091,49.683507 8.089153,49.188707 7.0148588,48.769688 5.5913819,48.215453 4.576523,47.555721 3.5081724,46.488856 2.4398217,45.421991 1.7786033,44.407132 1.2273403,42.983655 0.80832095,41.909361 0.31352155,40.294205 0.17830609,37.320951 0.02971768,34.106984 0,33.142645 0,25 0,16.857355 0.03268945,15.894502 0.17682021,12.677563 0.31203566,9.7043091 0.80980684,8.0921248 1.2258544,7.0148588 1.7800892,5.5913819 2.4413076,4.576523 3.5066865,3.5066865 4.5735513,2.4398217 5.5884101,1.7771174 7.013373,1.2258544 8.0876672,0.80683507 9.7028232,0.31203566 12.676077,0.17682021 15.89153,0.02971768 16.857355,0 24.997028,0 c 8.142645,0 9.105498,0.03268945 12.322437,0.17682021 2.973254,0.13521545 4.585438,0.63298663 5.662704,1.04903419 1.423477,0.551263 2.438336,1.2139673 3.506687,2.2808321 1.068351,1.0668648 1.726597,2.0832095 2.280832,3.5066865 0.419019,1.0742942 0.913819,2.6894502 1.049034,5.662704 0.147103,3.216939 0.17682,4.179792 0.17682,12.322437 0,8.139673 -0.02972,9.105498 -0.17682,12.322437 -0.135215,2.973254 -0.632986,4.58841 -1.049034,5.662704 -0.554235,1.423477 -1.213967,2.438336 -2.280832,3.505201 -1.066865,1.066865 -2.08321,1.726597 -3.506687,2.280832 -1.074294,0.419019 -2.68945,0.913819 -5.662704,1.049034 -3.213967,0.147103 -4.179792,0.17682 -12.322437,0.17682 -8.139673,0 -9.105498,-0.02823 -12.319465,-0.17682"
     fill="url(#1)"
     id="path16"
     style="fill:url(#1);stroke-width:0.0148589" />
  <path
     d="m 18.859584,25.104309 c 0,-3.419168 2.771025,-6.191679 6.190193,-6.191679 3.419168,0 6.191679,2.772511 6.191679,6.191679 0,3.419168 -2.772511,6.191679 -6.191679,6.191679 -3.419168,0 -6.190193,-2.772511 -6.190193,-6.191679 m -3.347103,0 c 0,5.267459 4.269837,9.537296 9.537296,9.537296 5.267459,0 9.537296,-4.269837 9.537296,-9.537296 0,-5.267459 -4.269837,-9.537296 -9.537296,-9.537296 -5.267459,0 -9.537147,4.26954 -9.537147,9.537296 m 17.223328,-9.915453 a 2.2288262,2.2288262 0 1 0 2.229718,-2.227935 h -8.91e-4 a 2.2298663,2.2298663 0 0 0 -2.228827,2.227935 M 17.546062,40.222883 C 15.735215,40.140416 14.750966,39.838782 14.09688,39.583952 13.229718,39.24636 12.610996,38.844279 11.960475,38.194651 11.309955,37.545022 10.907281,36.926895 10.571174,36.059733 10.316196,35.405944 10.014562,34.421397 9.9322437,32.61055 9.8421987,30.652749 9.8242199,30.064636 9.8242199,25.104606 c 0,-4.960029 0.019465,-5.546508 0.1080238,-7.505943 0.082466,-1.810847 0.3863303,-2.793462 0.6389303,-3.449183 0.337593,-0.867162 0.739673,-1.485884 1.389301,-2.136404 0.649629,-0.65052 1.267757,-1.053195 2.136405,-1.389302 0.653789,-0.254978 1.638335,-0.556612 3.449182,-0.63893 1.957801,-0.090045 2.545914,-0.1080238 7.503715,-0.1080238 4.957801,0 5.546508,0.019168 7.505944,0.108321 1.810847,0.082467 2.793462,0.3863298 3.449182,0.6389298 0.867162,0.336107 1.485885,0.739673 2.136405,1.389302 0.65052,0.649628 1.051708,1.269242 1.389301,2.136404 0.254978,0.653789 0.556612,1.638336 0.63893,3.449183 0.09004,1.959435 0.108024,2.545914 0.108024,7.505943 0,4.96003 -0.01798,5.546509 -0.108024,7.505944 -0.08247,1.810847 -0.385587,2.795097 -0.63893,3.449183 -0.337593,0.867162 -0.739673,1.485884 -1.389301,2.134918 -0.649629,0.649034 -1.269243,1.051709 -2.136405,1.389302 -0.653789,0.254977 -1.638335,0.556612 -3.449182,0.63893 -1.957801,0.09004 -2.545914,0.108024 -7.505944,0.108024 -4.96003,0 -5.546508,-0.01798 -7.503715,-0.108024 M 17.392273,6.6432392 C 15.415007,6.7332838 14.063893,7.0468053 12.883952,7.5059435 11.662704,7.9800892 10.627489,8.6161961 9.5937593,9.6482912 8.5600297,10.680386 7.9255572,11.71575 7.4514116,12.938484 c -0.4591382,1.180684 -0.7726597,2.531055 -0.8627043,4.508321 -0.091531,1.980387 -0.1124814,2.613522 -0.1124814,7.657504 0,5.043982 0.020951,5.677117 0.1124814,7.657504 0.090045,1.977414 0.4035661,3.327637 0.8627043,4.508321 0.4741456,1.221248 1.1087667,2.258544 2.1423477,3.290193 1.0335807,1.031649 2.0674587,1.666865 3.2901927,2.142348 1.18217,0.459138 2.531055,0.772659 4.508321,0.862704 1.981427,0.09004 2.613522,0.112481 7.657504,0.112481 5.043982,0 5.677118,-0.02095 7.657504,-0.112481 1.977414,-0.09005 3.327637,-0.403566 4.508321,-0.862704 1.221248,-0.475483 2.256463,-1.110253 3.290193,-2.142348 1.03373,-1.032095 1.666865,-2.068945 2.142348,-3.290193 0.459138,-1.180684 0.774145,-2.531055 0.862704,-4.508321 0.09005,-1.981872 0.110995,-2.613522 0.110995,-7.657504 0,-5.043982 -0.02095,-5.677117 -0.110995,-7.657504 -0.09004,-1.977414 -0.403566,-3.32838 -0.862704,-4.508321 C 42.17266,11.717236 41.53789,10.682021 40.505795,9.6482912 39.4737,8.6145617 38.43685,7.9800892 37.217088,7.5059435 36.034918,7.0468053 34.684547,6.7317979 32.708767,6.6432392 30.728083,6.5527489 30.095245,6.5307578 25.052006,6.5307578 c -5.043239,0 -5.677563,0.020951 -7.65899,0.1124814"
     fill="#ffffff"
     id="path18"
     style="stroke-width:0.0148589" />
</svg>
