<?xml version="1.0" encoding="UTF-8" standalone="no"?>
<svg
   xmlns:dc="http://purl.org/dc/elements/1.1/"
   xmlns:cc="http://creativecommons.org/ns#"
   xmlns:rdf="http://www.w3.org/1999/02/22-rdf-syntax-ns#"
   xmlns:svg="http://www.w3.org/2000/svg"
   xmlns="http://www.w3.org/2000/svg"
   xmlns:sodipodi="http://sodipodi.sourceforge.net/DTD/sodipodi-0.dtd"
   xmlns:inkscape="http://www.inkscape.org/namespaces/inkscape"
   width="50"
   height="50"
   viewBox="0 130.746 11.90558 11.903158"
   version="1.1"
   id="svg11"
   sodipodi:docname="ps.svg"
   inkscape:version="1.0.2-2 (e86c870879, 2021-01-15)">
  <metadata
     id="metadata17">
    <rdf:RDF>
      <cc:Work
         rdf:about="">
        <dc:format>image/svg+xml</dc:format>
        <dc:type
           rdf:resource="http://purl.org/dc/dcmitype/StillImage" />
        <dc:title></dc:title>
      </cc:Work>
    </rdf:RDF>
  </metadata>
  <defs
     id="defs15" />
  <sodipodi:namedview
     pagecolor="#ffffff"
     bordercolor="#666666"
     borderopacity="1"
     objecttolerance="10"
     gridtolerance="10"
     guidetolerance="10"
     inkscape:pageopacity="0"
     inkscape:pageshadow="2"
     inkscape:window-width="1920"
     inkscape:window-height="1051"
     id="namedview13"
     showgrid="false"
     fit-margin-top="0"
     fit-margin-left="0"
     fit-margin-right="0"
     fit-margin-bottom="0"
     inkscape:zoom="5.7752256"
     inkscape:cx="20.367813"
     inkscape:cy="32.904242"
     inkscape:window-x="-9"
     inkscape:window-y="-9"
     inkscape:window-maximized="1"
     inkscape:current-layer="svg11" />
  <radialGradient
     id="a"
     cx="-183.69"
     cy="328.97198"
     r="0.75999999"
     gradientTransform="matrix(10.913456,0,0,10.837118,2008.783,-3431.4726)"
     gradientUnits="userSpaceOnUse">
    <stop
       offset="0"
       stop-color="#34364e"
       stop-opacity=".98"
       id="stop2" />
    <stop
       offset="1"
       stop-color="#0c0824"
       id="stop4" />
  </radialGradient>
  <path
     d="M 0.49605917,131.19574 H 11.409521 v 10.888 H 0.49605917 Z"
     fill="url(#a)"
     id="path7"
     style="fill:url(#a);stroke-width:0.0202547" />
  <path
     d="M 0.49605917,131.19574 H 11.409521 v 10.888 H 0.49605917 Z M 0,142.59254 H 11.90558 V 130.68696 H 0 Z m 8.0263465,-7.02125 c -0.3918993,0 -0.5258191,0.20351 -0.5258191,0.37141 0,0.18315 0.08928,0.31035 0.615119,0.59019 0.7788187,0.38668 1.0218982,0.75809 1.0218982,1.3025 0,0.81405 -0.6051989,1.2516 -1.4237176,1.2516 -0.4315792,0 -0.8036386,-0.0916 -1.0169383,-0.21877 -0.03472,-0.0153 -0.03968,-0.0407 -0.03968,-0.0814 v -0.74792 c 0,-0.0509 0.0248,-0.0661 0.05954,-0.0407 0.3125195,0.20861 0.6696789,0.30018 0.9970783,0.30018 0.3918994,0 0.5555991,-0.1679 0.5555991,-0.39686 0,-0.18316 -0.1140998,-0.34597 -0.615139,-0.61054 -0.7044188,-0.34597 -0.9970783,-0.69702 -0.9970783,-1.28213 0,-0.65635 0.5010392,-1.20073 1.3691377,-1.20073 0.4266193,0 0.7242588,0.0661 0.8879585,0.14246 0.03968,0.0254 0.0496,0.0661 0.0496,0.10174 v 0.69702 c 0,0.0407 -0.0248,0.0662 -0.07442,0.0509 -0.2182597,-0.14242 -0.5406991,-0.22892 -0.8631385,-0.22892 z m -4.2661728,0.60546 c 0.1140998,0.0102 0.2033996,0.0102 0.4018193,0.0102 0.580419,0 1.1260781,-0.20859 1.1260781,-1.01755 0,-0.64616 -0.3918993,-0.9718 -1.0516582,-0.9718 -0.1984197,0 -0.3869394,0.0102 -0.4762392,0.0153 z m -0.8829785,-2.70166 c 0,-0.0356 0.06946,-0.0611 0.1091198,-0.0611 0.3174994,-0.0153 0.7887587,-0.0254 1.2798578,-0.0254 1.3740977,0 1.9098368,0.77335 1.9098368,1.76041 0,1.2923 -0.9127584,1.84688 -2.0338566,1.84688 -0.1884996,0 -0.2529795,-0.0102 -0.3869393,-0.0102 v 1.95373 c 0,0.0407 -0.01488,0.061 -0.05952,0.061 H 2.9367151 c -0.03968,0 -0.05954,-0.0153 -0.05954,-0.061 v -5.46435 z"
     fill="#31c5f0"
     id="path9"
     style="stroke-width:0.0202547" />
</svg>
