<?xml version="1.0" encoding="UTF-8" standalone="no"?>
<svg
   xmlns:dc="http://purl.org/dc/elements/1.1/"
   xmlns:cc="http://creativecommons.org/ns#"
   xmlns:rdf="http://www.w3.org/1999/02/22-rdf-syntax-ns#"
   xmlns:svg="http://www.w3.org/2000/svg"
   xmlns="http://www.w3.org/2000/svg"
   xmlns:sodipodi="http://sodipodi.sourceforge.net/DTD/sodipodi-0.dtd"
   xmlns:inkscape="http://www.inkscape.org/namespaces/inkscape"
   width="50"
   height="50"
   fill="none"
   version="1.1"
   viewBox="0 0 50 50"
   id="svg8"
   sodipodi:docname="ts.svg"
   inkscape:version="1.0.2-2 (e86c870879, 2021-01-15)">
  <metadata
     id="metadata14">
    <rdf:RDF>
      <cc:Work
         rdf:about="">
        <dc:format>image/svg+xml</dc:format>
        <dc:type
           rdf:resource="http://purl.org/dc/dcmitype/StillImage" />
        <dc:title>TypeScript logo</dc:title>
      </cc:Work>
    </rdf:RDF>
  </metadata>
  <defs
     id="defs12" />
  <sodipodi:namedview
     pagecolor="#ffffff"
     bordercolor="#666666"
     borderopacity="1"
     objecttolerance="10"
     gridtolerance="10"
     guidetolerance="10"
     inkscape:pageopacity="0"
     inkscape:pageshadow="2"
     inkscape:window-width="1920"
     inkscape:window-height="1051"
     id="namedview10"
     showgrid="false"
     fit-margin-top="0"
     fit-margin-left="0"
     fit-margin-right="0"
     fit-margin-bottom="0"
     inkscape:zoom="0.859375"
     inkscape:cx="-7.7523298"
     inkscape:cy="338.86283"
     inkscape:window-x="-9"
     inkscape:window-y="-9"
     inkscape:window-maximized="1"
     inkscape:current-layer="svg8" />
  <title
     id="title2">TypeScript logo</title>
  <rect
     width="50"
     height="50"
     rx="4.8828125"
     fill="#3178c6"
     id="rect4"
     x="0"
     y="0"
     style="stroke-width:0.0976562" />
  <path
     d="m 30.957031,39.746094 v 4.882812 c 0.791016,0.410156 1.757813,0.712891 2.832031,0.917969 1.074219,0.205078 2.246094,0.302734 3.417969,0.302734 1.171875,0 2.246094,-0.107422 3.320313,-0.332031 1.074218,-0.224609 1.953125,-0.595703 2.734375,-1.074219 0.791015,-0.517578 1.464843,-1.171875 1.855468,-2.050781 0.390625,-0.878906 0.69336,-1.855469 0.69336,-3.125 0,-0.888672 -0.136719,-1.660156 -0.400391,-2.34375 -0.263672,-0.683594 -0.644531,-1.269531 -1.171875,-1.757812 -0.498047,-0.517579 -1.074219,-0.976563 -1.757812,-1.367188 -0.683594,-0.390625 -1.464844,-0.800781 -2.34375,-1.171875 -0.644532,-0.263672 -1.171875,-0.517578 -1.757813,-0.771484 -0.507812,-0.253906 -0.947265,-0.507813 -1.269531,-0.761719 -0.361328,-0.263672 -0.634766,-0.537109 -0.830078,-0.820312 -0.195313,-0.292969 -0.292969,-0.615235 -0.292969,-0.976563 0,-0.332031 0.08691,-0.634766 0.263672,-0.908203 0.176758,-0.273438 0.419922,-0.498047 0.732422,-0.693359 0.3125,-0.195313 0.703125,-0.341797 1.171875,-0.449219 0.458984,-0.107422 0.966797,-0.15625 1.5625,-0.15625 0.410156,0 0.839844,0.03027 1.269531,0.0918 0.449219,0.06152 0.908203,0.15625 1.367188,0.283203 0.458984,0.126953 0.908203,0.283203 1.367187,0.478515 0.429688,0.195313 0.830078,0.419922 1.171875,0.673828 v -4.589843 c -0.742187,-0.283203 -1.5625,-0.498047 -2.441406,-0.634766 -0.878906,-0.136719 -1.855469,-0.205078 -3.027344,-0.205078 -1.171875,0 -2.246094,0.126953 -3.320312,0.371094 -1.074219,0.24414 -1.953125,0.634765 -2.734375,1.171875 -0.791016,0.527343 -1.367188,1.171875 -1.855469,2.050781 -0.458985,0.820312 -0.683594,1.757812 -0.683594,2.929687 0,1.464844 0.419922,2.734375 1.269531,3.710938 0.839844,1.074219 2.148438,1.855469 3.808594,2.636719 0.673828,0.273437 1.269531,0.546875 1.855469,0.810547 0.585937,0.263671 1.074219,0.537109 1.464844,0.820312 0.419921,0.283203 0.751953,0.595703 0.976562,0.927734 0.244141,0.332032 0.371094,0.722657 0.371094,1.171875 0,0.3125 -0.07617,0.605469 -0.22461,0.878907 -0.148437,0.273437 -0.380859,0.507812 -0.693359,0.703125 -0.3125,0.195312 -0.693359,0.351562 -1.171875,0.46875 -0.458984,0.107422 -0.976562,0.166015 -1.660156,0.166015 -1.074219,0 -2.148438,-0.185547 -3.125,-0.55664 -1.074219,-0.371094 -2.050781,-0.927735 -2.929688,-1.660157 z M 22.753906,27.734375 h 6.25 V 23.730469 H 11.523438 v 4.003906 h 6.249999 v 17.871094 h 4.980469 z"
     clip-rule="evenodd"
     fill="#fff"
     fill-rule="evenodd"
     style="fill:#ffffff;stroke-width:0.0976562"
     id="path6" />
</svg>
